<?xml version="1.0" standalone="no"?>
<!DOCTYPE svg PUBLIC "-//W3C//DTD SVG 20010904//EN"
 "http://www.w3.org/TR/2001/REC-SVG-20010904/DTD/svg10.dtd">
<svg version="1.0" xmlns="http://www.w3.org/2000/svg"
 width="1024.000000pt" height="1024.000000pt" viewBox="0 0 1024.000000 1024.000000"
 preserveAspectRatio="xMidYMid meet">
<metadata>
Created by potrace 1.15, written by Peter Selinger 2001-2017
</metadata>
<g transform="translate(0.000000,1024.000000) scale(0.100000,-0.100000)"
fill="#000000" stroke="none">
<path d="M6127 6576 c-22 -8 -54 -33 -75 -58 -19 -23 -68 -75 -107 -113 -76
-75 -105 -126 -195 -340 -23 -55 -55 -129 -71 -165 -112 -254 -248 -583 -244
-590 3 -4 22 -8 42 -8 21 0 58 -5 83 -10 25 -6 87 -13 138 -17 89 -7 92 -6 93
14 2 28 2 27 31 91 38 84 75 172 83 200 4 14 11 30 16 35 4 6 33 71 64 145 31
74 63 148 71 164 8 16 14 35 14 42 0 6 9 29 19 51 11 21 26 54 34 73 32 78 71
168 97 225 58 125 64 152 50 195 -23 69 -72 92 -143 66z"/>
<path d="M4520 4885 c0 -7 -6 -18 -14 -22 -8 -4 -30 -28 -48 -53 -31 -43 -33
-49 -31 -124 1 -71 4 -81 29 -107 15 -16 36 -29 45 -29 10 0 20 -4 24 -9 3 -6
24 -12 48 -15 23 -2 87 -10 142 -16 55 -6 112 -14 127 -16 25 -5 30 -1 52 48
13 29 38 88 55 131 17 43 41 97 52 118 11 22 17 43 15 48 -3 5 -41 12 -83 16
-43 4 -143 15 -223 26 -175 23 -190 23 -190 4z"/>
<path d="M6014 4789 c-33 -34 -66 -69 -74 -78 -8 -9 -114 -126 -234 -261 -120
-135 -224 -249 -230 -255 -9 -8 -125 -135 -211 -231 -5 -6 -51 -56 -101 -110
-50 -54 -106 -117 -125 -139 -19 -22 -55 -62 -80 -90 -26 -27 -60 -66 -75 -85
-16 -19 -41 -48 -57 -65 -15 -16 -41 -66 -57 -110 -17 -44 -35 -87 -40 -95 -6
-8 -13 -22 -16 -30 -7 -17 -48 -114 -76 -180 -11 -25 -25 -56 -32 -70 -33 -67
-40 -110 -25 -153 17 -49 46 -67 110 -67 53 0 45 -7 244 216 39 43 79 87 90
99 11 11 71 78 134 150 63 71 132 148 154 170 22 22 58 64 80 93 22 28 43 52
47 52 5 0 64 62 131 138 67 75 132 147 145 159 13 12 24 25 24 29 0 5 24 31
53 59 28 27 67 68 86 90 105 123 250 282 314 345 20 20 37 39 37 42 0 2 18 24
40 48 23 25 60 69 83 99 38 50 42 59 41 110 -2 110 -45 146 -187 161 -45 4
-94 11 -108 15 -24 6 -34 -1 -85 -56z"/>
</g>
</svg>
