<?xml version="1.0" encoding="UTF-8"?>
<svg viewBox="0 0 1024 1024" version="1.1" xmlns="http://www.w3.org/2000/svg" xmlns:xlink="http://www.w3.org/1999/xlink">
    <!-- Generator: Sketch 52.1 (67048) - http://www.bohemiancoding.com/sketch -->
    <title>logo</title>
    <desc>Created with Sketch.</desc>
    <g id="Page-1" stroke="none" stroke-width="1" fill="none" fill-rule="evenodd">
        <g id="class-feed-12" transform="translate(-18.000000, -15.000000)" fill-rule="nonzero">
            <g id="logo" transform="translate(18.000000, 15.000000)">
                <path d="M1.97003454,21.3859556 C1.95712915,21.3347286 1.94965868,21.3076628 1.94965868,21.3076628 C1.40803709,19.7002666 1.09946339,17.9804862 1.09946339,16.1890625 C1.09946339,7.24767039 8.46558504,0 17.5497317,0 C26.6338784,0.000334599022 34,7.24800498 34,16.1893971 C34,23.1088295 29.5864471,29.0110919 23.3810888,31.3274957 C23.3841489,31.3278303 23.3453887,31.3432216 23.2746685,31.3689855 C22.4613862,31.6661062 21.6175036,31.9009921 20.7491411,32.0696282 C17.3872113,32.8157758 10.9081522,33.6623022 1.88758571,32.1746911 C-0.353700875,31.7965984 -0.396200999,30.3518156 0.705402235,29.0820261 C0.803366935,28.9691769 0.89696116,28.8600642 0.986518512,28.7520532 C2.01477809,27.627575 2.63488106,26.1260952 2.63488106,24.4769046 C2.63488106,24.4355872 2.634478,24.3943625 2.63367552,24.3532341 C2.63447805,24.3113861 2.63488106,24.2694384 2.63488106,24.2273949 C2.63488106,23.3518316 2.45387921,22.5179022 2.12671536,21.7599178 C2.07845061,21.6332802 2.0261729,21.5085763 1.97003454,21.3859556 Z" id="Combined-Shape" fill="#03A9F4"/>
                <g id="Bolt" transform="translate(11.000000, 6.000000)">
                    <path d="M11.0370229,11.2883199 L7.83823558,11.2883199 L10.0919267,3.26694205 C10.1403931,3.11793812 10.1403931,2.79509629 9.82536104,2.62125839 C9.75266134,2.57159041 9.67996158,2.57159041 9.58302864,2.57159041 C9.31646301,2.57159041 9.14683038,2.79509629 9.14683038,2.81993028 L2.28882419,12.4555172 C2.28882419,12.4803512 2.11919152,12.778359 2.21612447,13.2253708 C2.33729066,13.6972166 2.84618864,13.7468845 2.87042188,13.7468845 L6.28730839,13.7468845 L4.03361728,21.7682623 C3.9851508,21.9172662 3.9851508,22.215274 4.27594965,22.364278 C4.34864937,22.413946 4.44558231,22.43878 4.54251527,22.43878 C4.80908088,22.43878 4.9544803,22.215274 4.97871354,22.215274 L11.6428539,12.5051852 C11.6428539,12.4803512 11.9094194,12.1326754 11.7155536,11.7353316 C11.5216876,11.2386518 11.0612561,11.2883199 11.0370229,11.2883199 Z" id="Shape-Copy" fill-opacity="0.19" fill="#000000" transform="translate(6.986207, 12.505185) rotate(7.000000) translate(-6.986207, -12.505185) "/>
                    <path d="M10.0646091,9.27794945 L6.8658218,9.27794945 L9.11951288,1.25657168 C9.16797935,1.10756776 9.16797935,0.784725927 8.85294725,0.610888018 C8.78024755,0.561220045 8.70754779,0.561220045 8.61061486,0.561220045 C8.34404923,0.561220045 8.17441659,0.784725927 8.17441659,0.809559914 L1.3164104,10.4451468 C1.3164104,10.4699808 1.14677774,10.7679887 1.24371069,11.2150005 C1.36487688,11.6868462 1.87377486,11.7365141 1.8980081,11.7365141 L5.31489458,11.7365141 L3.0612035,19.7578919 C3.01273702,19.9068959 3.01273702,20.2049037 3.30353587,20.3539077 C3.37623558,20.4035756 3.47316853,20.4284096 3.57010148,20.4284096 C3.83666709,20.4284096 3.98206652,20.2049037 4.00629976,20.2049037 L10.6704401,10.4948148 C10.6704401,10.4699808 10.9370056,10.122305 10.7431398,9.72496122 C10.5492738,9.22828149 10.0888423,9.27794945 10.0646091,9.27794945 Z" id="Shape" fill="#FFD600" transform="translate(6.013793, 10.494815) rotate(7.000000) translate(-6.013793, -10.494815) "/>
                </g>
            </g>
        </g>
    </g>
</svg>
